HIERARCHY
ROOT hip
{
  OFFSET 0 0 0
  CHANNELS 6 Xposition Yposition Zposition Zrotation Yrotation Xrotation
  JOINT abdomen
  {
    OFFSET 0 20.6881 -0.73152
    CHANNELS 3 Zrotation Xrotation Yrotation
    JOINT chest
    {
      OFFSET 0 11.7043 -0.48768
      CHANNELS 3 Zrotation Xrotation Yrotation
      JOINT neck
      {
        OFFSET 0 22.1894 -2.19456
        CHANNELS 3 Zrotation Xrotation Yrotation
        JOINT head
        {
          OFFSET -0.24384 7.07133 1.2192
          CHANNELS 3 Zrotation Xrotation Yrotation
          JOINT leftEye
          {
            OFFSET 4.14528 8.04674 8.04672
            CHANNELS 3 Zrotation Xrotation Yrotation
            End Site
            {
              OFFSET 1 0 0
            }
          }
          JOINT rightEye
          {
            OFFSET -3.6576 8.04674 8.04672
            CHANNELS 3 Zrotation Xrotation Yrotation
            End Site
            {
              OFFSET 1 0 0
            }
          }
        }
      }
      JOINT rCollar
      {
        OFFSET -2.68224 19.2634 -4.8768
        CHANNELS 3 Zrotation Xrotation Yrotation
        JOINT rShldr
        {
          OFFSET -8.77824 -1.95073 1.46304
          CHANNELS 3 Zrotation Xrotation Yrotation
          JOINT rForeArm
          {
            OFFSET -28.1742 -1.7115 0.48768
            CHANNELS 3 Zrotation Xrotation Yrotation
            JOINT rHand
            {
              OFFSET -22.5879 0.773209 7.07136
              CHANNELS 3 Zrotation Xrotation Yrotation
              JOINT rThumb1
              {
                OFFSET -1.2192 -0.487915 3.41376
                CHANNELS 3 Zrotation Xrotation Yrotation
                JOINT rThumb2
                {
                  OFFSET -3.37035 -0.52449 3.41376
                  CHANNELS 3 Zrotation Xrotation Yrotation
                  End Site
                  {
                    OFFSET -1.78271 -1.18214 1.43049
                  }
                }
              }
              JOINT rIndex1
              {
                OFFSET -7.75947 0.938293 5.60832
                CHANNELS 3 Zrotation Xrotation Yrotation
                JOINT rIndex2
                {
                  OFFSET -2.54057 -0.884171 1.56538
                  CHANNELS 3 Zrotation Xrotation Yrotation
                  End Site
                  {
                    OFFSET -1.62519 -0.234802 1.16502
                  }
                }
              }
              JOINT rMid1
              {
                OFFSET -8.24714 1.18213 3.41376
                CHANNELS 3 Zrotation Xrotation Yrotation
                JOINT rMid2
                {
                  OFFSET -3.10165 -0.590103 1.0647
                  CHANNELS 3 Zrotation Xrotation Yrotation
                  End Site
                  {
                    OFFSET -2.48547 -0.328903 0.83742
                  }
                }
              }
              JOINT rRing1
              {
                OFFSET -8.82822 0.546677 1.51678
                CHANNELS 3 Zrotation Xrotation Yrotation
                JOINT rRing2
                {
                  OFFSET -2.60934 -0.819778 -0.0198488
                  CHANNELS 3 Zrotation Xrotation Yrotation
                  End Site
                  {
                    OFFSET -2.33842 -0.294052 0.168128
                  }
                }
              }
              JOINT rPinky1
              {
                OFFSET -8.27202 -0.0477905 -0.4584
                CHANNELS 3 Zrotation Xrotation Yrotation
                JOINT rPinky2
                {
                  OFFSET -1.82734 -0.647385 -0.700984
                  CHANNELS 3 Zrotation Xrotation Yrotation
                  End Site
                  {
                    OFFSET -1.69225 -0.51767 -0.607171
                  }
                }
              }
            }
          }
        }
      }
      JOINT lCollar
      {
        OFFSET 2.68224 19.2634 -4.8768
        CHANNELS 3 Zrotation Xrotation Yrotation
        JOINT lShldr
        {
          OFFSET 8.77824 -1.95073 1.46304
          CHANNELS 3 Zrotation Xrotation Yrotation
          JOINT lForeArm
          {
            OFFSET 28.1742 -1.7115 0.48768
            CHANNELS 3 Zrotation Xrotation Yrotation
            JOINT lHand
            {
              OFFSET 22.5879 0.773209 7.07136
              CHANNELS 3 Zrotation Xrotation Yrotation
              JOINT lThumb1
              {
                OFFSET 1.2192 -0.487915 3.41376
                CHANNELS 3 Zrotation Xrotation Yrotation
                JOINT lThumb2
                {
                  OFFSET 3.37035 -0.52449 3.41376
                  CHANNELS 3 Zrotation Xrotation Yrotation
                  End Site
                  {
                    OFFSET 1.78271 -1.18214 1.43049
                  }
                }
              }
              JOINT lIndex1
              {
                OFFSET 7.75947 0.938293 5.60832
                CHANNELS 3 Zrotation Xrotation Yrotation
                JOINT lIndex2
                {
                  OFFSET 2.54057 -0.884171 1.56538
                  CHANNELS 3 Zrotation Xrotation Yrotation
                  End Site
                  {
                    OFFSET 1.62519 -0.234802 1.16502
                  }
                }
              }
              JOINT lMid1
              {
                OFFSET 8.24714 1.18213 3.41376
                CHANNELS 3 Zrotation Xrotation Yrotation
                JOINT lMid2
                {
                  OFFSET 3.10165 -0.590103 1.0647
                  CHANNELS 3 Zrotation Xrotation Yrotation
                  End Site
                  {
                    OFFSET 2.48547 -0.328903 0.83742
                  }
                }
              }
              JOINT lRing1
              {
                OFFSET 8.82822 0.546677 1.51678
                CHANNELS 3 Zrotation Xrotation Yrotation
                JOINT lRing2
                {
                  OFFSET 2.60934 -0.819778 -0.0198488
                  CHANNELS 3 Zrotation Xrotation Yrotation
                  End Site
                  {
                    OFFSET 2.33842 -0.294052 0.168128
                  }
                }
              }
              JOINT lPinky1
              {
                OFFSET 8.27202 -0.0477905 -0.4584
                CHANNELS 3 Zrotation Xrotation Yrotation
                JOINT lPinky2
                {
                  OFFSET 1.82734 -0.647385 -0.700984
                  CHANNELS 3 Zrotation Xrotation Yrotation
                  End Site
                  {
                    OFFSET 1.69225 -0.51767 -0.607171
                  }
                }
              }
            }
          }
        }
      }
    }
  }
  JOINT rButtock
  {
    OFFSET -8.77824 4.35084 1.2192
    CHANNELS 3 Zrotation Xrotation Yrotation
    JOINT rThigh
    {
      OFFSET 0 -1.70687 -2.19456
      CHANNELS 3 Zrotation Xrotation Yrotation
      JOINT rShin
      {
        OFFSET 0 -36.8199 0.73152
        CHANNELS 3 Zrotation Xrotation Yrotation
        JOINT rFoot
        {
          OFFSET 0.73152 -45.1104 -5.12064
          CHANNELS 3 Zrotation Xrotation Yrotation
          End Site
          {
            OFFSET -1.1221 -3.69964 12.103
          }
        }
      }
    }
  }
  JOINT lButtock
  {
    OFFSET 8.77824 4.35084 1.2192
    CHANNELS 3 Zrotation Xrotation Yrotation
    JOINT lThigh
    {
      OFFSET 0 -1.70687 -2.19456
      CHANNELS 3 Zrotation Xrotation Yrotation
      JOINT lShin
      {
        OFFSET 0 -36.8199 0.73152
        CHANNELS 3 Zrotation Xrotation Yrotation
        JOINT lFoot
        {
          OFFSET -0.73152 -45.1104 -5.12064
          CHANNELS 3 Zrotation Xrotation Yrotation
          End Site
          {
            OFFSET 1.1221 -3.69964 12.103
          }
        }
      }
    }
  }
}
MOTION
Frames:	4
Frame Time:	0.00833333
0.502807 84.7178 4.86948 0.0 0.0 0.0 -0.46253 -0.00207377 -0.0132009 -0.127532 -0.00315852 -0.0220953 -3.8679e-15 -7.95139e-16 3.72721e-17 -1.16196e-14 3.18055e-15 1.14922e-16 -0.0 0.0 0.0 -0.0 0.0 0.0 -1.93958e-15 -7.37677e-18 1.49089e-16 -3.82017e-14 -3.04389e-16 1.39149e-15 -6.94305e-13 2.04748e-13 3.81667e-14 -7.96049e-12 -2.30466e-13 7.31528e-14 -1.87756e-11 -5.56253e-14 2.57625e-13 -3.24246e-11 -9.85972e-14 4.48458e-13 -1.87708e-11 -5.20816e-14 2.41722e-13 7.73091 5.47488 0.417314 -1.87772e-11 -5.52621e-14 2.54444e-13 2.90554 0.965183 0.102902 -1.87693e-11 -5.55603e-14 2.59215e-13 10.2786 0.731801 0.0259123 -1.87794e-11 -5.36719e-14 2.67167e-13 2.22167 -0.733487 -0.20892 -1.93685e-15 -7.37677e-18 -1.49089e-16 -4.25255e-14 -8.69683e-17 -5.96354e-16 -6.98032e-13 -2.08724e-13 -1.27222e-14 -7.95659e-12 1.95231e-13 1.33583e-13 -1.87681e-11 -2.78202e-14 2.60805e-13 -3.24075e-11 -5.08889e-14 4.47663e-13 -1.87752e-11 -2.5842e-14 2.73528e-13 -7.73091 5.47488 -0.417314 -1.87675e-11 -2.77305e-14 2.60805e-13 -2.90554 0.965183 -0.102902 -1.87737e-11 -2.78299e-14 2.5683e-13 -10.2786 0.731801 -0.0259123 -1.87627e-11 -2.70347e-14 2.44903e-13 -2.22167 -0.733487 0.20892 -2.03217e-16 0.0 -3.88251e-19 0.172376 -2.4816 -0.0258957 -0.0078675 -1.0571 -0.0680525 -0.522464 3.53839 0.132388 2.03217e-16 0.0 3.88251e-19 -0.875837 -4.26242 0.0710577 0.00283228 2.1685 0.0189681 0.52771 2.09369 -0.103294
-0.0792484 83.8142 3.92582 -1.4429 -0.5044 1.557 -1.66716 2.32388 -1.40696 1.0483 -1.24969 -0.41324 -2.86559 2.98792 -3.30822 4.28817 -4.63627 -5.74023 -0.0 0.0 0.0 -0.0 0.0 0.0 3.02743e-14 5.20113e-15 9.57001e-15 22.7177 -2.20412 1.23166 -2.22171 -0.792271 3.6703 0.0642498 5.63321 0.777991 -2.79995e-10 5.57499e-11 -1.35109e-10 -4.855e-10 9.72017e-11 -2.28682e-10 -2.79991e-10 5.57545e-11 -1.35126e-10 7.73091 5.47488 0.417314 -2.79997e-10 5.5751e-11 -1.35112e-10 2.90554 0.965183 0.102902 -2.7999e-10 5.57505e-11 -1.35109e-10 10.2786 0.731801 0.0259123 -2.79998e-10 5.57516e-11 -1.35101e-10 2.22167 -0.733487 -0.20892 3.02538e-14 5.19946e-15 9.266e-15 -23.2134 -1.97669 0.545924 4.78461 -2.29956 -7.33188 -0.00548505 1.64406 -0.230715 -3.33085e-10 -2.179e-10 -5.48971e-11 -5.75811e-10 -3.77543e-10 -9.28566e-11 -3.3309e-10 -2.17898e-10 -5.48861e-11 -7.73091 5.47488 -0.417314 -3.33083e-10 -2.17899e-10 -5.4895e-11 -2.90554 0.965183 -0.102902 -3.33089e-10 -2.17899e-10 -5.48982e-11 -10.2786 0.731801 -0.0259123 -3.3308e-10 -2.17898e-10 -5.49075e-11 -2.22167 -0.733487 0.20892 -2.03217e-16 0.0 -3.88251e-19 -1.2638 -3.86289 -0.0223976 -0.00396645 4.08275 0.0338191 -0.584195 -0.160452 -1.87261 2.03217e-16 0.0 3.88251e-19 1.25697 -4.68579 1.0793 -0.00263338 5.28763 -0.0420447 0.46007 -0.685449 0.888007
-0.385181 83.8406 3.87154 -1.5764 -0.5285 1.5007 -2.8406 4.77612 -2.88373 2.27799 -2.56934 -0.82636 -5.51774 6.10856 -6.84374 7.80513 -9.34436 -11.9524 -0.0 0.0 0.0 -0.0 0.0 0.0 6.65712e-14 1.12298e-14 1.86454e-14 46.843 -4.51271 2.53221 -4.46504 -1.62129 7.56054 -0.0372029 11.5555 1.62177 -5.55864e-10 9.81213e-11 -2.84855e-10 -9.64089e-10 1.71333e-10 -4.82399e-10 -5.55861e-10 9.81271e-11 -2.84873e-10 7.73091 5.47488 0.417314 -5.55867e-10 9.81233e-11 -2.84857e-10 2.90554 0.965183 0.102902 -5.55859e-10 9.81225e-11 -2.84855e-10 10.2786 0.731801 0.0259123 -5.55867e-10 9.81227e-11 -2.84847e-10 2.22167 -0.733487 -0.20892 6.65258e-14 1.12263e-14 1.83317e-14 -47.703 -4.0397 1.1471 9.21385 -4.6093 -15.1289 0.00315429 3.38903 -0.476237 -6.74546e-10 -4.30505e-10 -1.21875e-10 -1.16618e-09 -7.45971e-10 -2.06443e-10 -6.74549e-10 -4.30504e-10 -1.21866e-10 -7.73091 5.47488 -0.417314 -6.74544e-10 -4.30505e-10 -1.2187e-10 -2.90554 0.965183 -0.102902 -6.7455e-10 -4.30504e-10 -1.21873e-10 -10.2786 0.731801 -0.0259123 -6.74542e-10 -4.30502e-10 -1.21879e-10 -2.22167 -0.733487 0.20892 -2.03217e-16 0.0 -3.88251e-19 -2.80358 -5.31522 -0.0275201 -0.0198845 9.52358 0.14348 -0.931631 -4.07033 -4.00174 2.03217e-16 0.0 3.88251e-19 3.51393 -5.12417 2.1594 -0.00113095 8.59053 -0.107429 0.491603 -3.63464 1.92023
-0.716696 83.857 3.79043 -1.7539 -0.5946 1.5172 -3.73512 6.95912 -4.22218 3.34882 -3.74205 -1.19779 -7.55686 8.84361 -10.0316 10.0596 -13.3442 -17.6559 -0.0 0.0 0.0 -0.0 0.0 0.0 9.4702e-14 1.56181e-14 2.84118e-14 68.4389 -6.60009 3.7169 -6.3625 -2.33784 11.0191 -0.283648 16.8869 2.42743 -8.02434e-10 1.67361e-10 -4.05844e-10 -1.39165e-09 2.91802e-10 -6.86943e-10 -8.02431e-10 1.67368e-10 -4.05863e-10 7.73091 5.47488 0.417314 -8.02438e-10 1.67364e-10 -4.05845e-10 2.90554 0.965183 0.102902 -8.0243e-10 1.67363e-10 -4.05844e-10 10.2786 0.731801 0.0259123 -8.02436e-10 1.67362e-10 -4.05837e-10 2.22167 -0.733487 -0.20892 9.4635e-14 1.56131e-14 2.80962e-14 -69.5265 -5.92791 1.6456 12.6271 -6.44779 -22.1251 0.0233908 4.93187 -0.694432 -9.61717e-10 -6.53643e-10 -1.65213e-10 -1.66262e-09 -1.13253e-09 -2.79465e-10 -9.61718e-10 -6.53642e-10 -1.65205e-10 -7.73091 5.47488 -0.417314 -9.61715e-10 -6.53643e-10 -1.65207e-10 -2.90554 0.965183 -0.102902 -9.6172e-10 -6.53642e-10 -1.65208e-10 -10.2786 0.731801 -0.0259123 -9.61714e-10 -6.53639e-10 -1.65212e-10 -2.22167 -0.733487 0.20892 -2.03217e-16 0.0 -3.88251e-19 -4.13565 -6.62545 -0.0154002 -0.0522096 14.3623 0.244937 -1.48733 -7.51838 -5.93326 2.03217e-16 0.0 3.88251e-19 5.56745 -5.52694 3.09977 0.0067185 11.5258 -0.166871 0.614373 -6.23611 2.88738
